<mxfile host="Electron" modified="2024-05-26T13:02:30.334Z" agent="Mozilla/5.0 (Macintosh; Intel Mac OS X 10_15_7) AppleWebKit/537.36 (KHTML, like Gecko) draw.io/22.0.3 Chrome/114.0.5735.289 Electron/25.8.4 Safari/537.36" etag="oFe_0xxJ5lcvjnKhQPen" version="22.0.3" type="device">
  <diagram name="Page-1" id="ZaqIwXRcKnVtu84Ctnnx">
    <mxGraphModel dx="984" dy="718" grid="1" gridSize="10" guides="1" tooltips="1" connect="1" arrows="1" fold="1" page="1" pageScale="1" pageWidth="827" pageHeight="1169" math="0" shadow="0">
      <root>
        <mxCell id="0" />
        <mxCell id="1" parent="0" />
        <mxCell id="bMCT6bNHXgNXmFaWf76b-39" style="edgeStyle=orthogonalEdgeStyle;rounded=0;orthogonalLoop=1;jettySize=auto;html=1;exitX=1;exitY=0.5;exitDx=0;exitDy=0;entryX=0;entryY=0.5;entryDx=0;entryDy=0;endArrow=none;endFill=0;" parent="1" source="bMCT6bNHXgNXmFaWf76b-14" target="bMCT6bNHXgNXmFaWf76b-15" edge="1">
          <mxGeometry relative="1" as="geometry" />
        </mxCell>
        <mxCell id="bMCT6bNHXgNXmFaWf76b-40" style="edgeStyle=orthogonalEdgeStyle;rounded=0;orthogonalLoop=1;jettySize=auto;html=1;exitX=1;exitY=0.5;exitDx=0;exitDy=0;entryX=0;entryY=0.5;entryDx=0;entryDy=0;endArrow=none;endFill=0;" parent="1" source="bMCT6bNHXgNXmFaWf76b-14" target="bMCT6bNHXgNXmFaWf76b-16" edge="1">
          <mxGeometry relative="1" as="geometry" />
        </mxCell>
        <mxCell id="bMCT6bNHXgNXmFaWf76b-41" style="edgeStyle=orthogonalEdgeStyle;rounded=0;orthogonalLoop=1;jettySize=auto;html=1;exitX=1;exitY=0.5;exitDx=0;exitDy=0;endArrow=none;endFill=0;" parent="1" source="bMCT6bNHXgNXmFaWf76b-14" target="bMCT6bNHXgNXmFaWf76b-17" edge="1">
          <mxGeometry relative="1" as="geometry" />
        </mxCell>
        <mxCell id="bMCT6bNHXgNXmFaWf76b-42" style="edgeStyle=orthogonalEdgeStyle;rounded=0;orthogonalLoop=1;jettySize=auto;html=1;exitX=1;exitY=0.5;exitDx=0;exitDy=0;entryX=0;entryY=0.5;entryDx=0;entryDy=0;endArrow=none;endFill=0;" parent="1" source="bMCT6bNHXgNXmFaWf76b-14" target="bMCT6bNHXgNXmFaWf76b-18" edge="1">
          <mxGeometry relative="1" as="geometry" />
        </mxCell>
        <mxCell id="bMCT6bNHXgNXmFaWf76b-43" style="edgeStyle=orthogonalEdgeStyle;rounded=0;orthogonalLoop=1;jettySize=auto;html=1;exitX=1;exitY=0.5;exitDx=0;exitDy=0;entryX=0;entryY=0.5;entryDx=0;entryDy=0;endArrow=none;endFill=0;" parent="1" source="bMCT6bNHXgNXmFaWf76b-14" target="bMCT6bNHXgNXmFaWf76b-31" edge="1">
          <mxGeometry relative="1" as="geometry" />
        </mxCell>
        <mxCell id="bMCT6bNHXgNXmFaWf76b-59" style="edgeStyle=orthogonalEdgeStyle;rounded=0;orthogonalLoop=1;jettySize=auto;html=1;exitX=0.5;exitY=0;exitDx=0;exitDy=0;entryX=0.5;entryY=1;entryDx=0;entryDy=0;endArrow=none;endFill=0;" parent="1" source="bMCT6bNHXgNXmFaWf76b-14" target="bMCT6bNHXgNXmFaWf76b-58" edge="1">
          <mxGeometry relative="1" as="geometry" />
        </mxCell>
        <mxCell id="GkStRdjyFZFUsdvMpN6v-38" value="1" style="edgeLabel;html=1;align=center;verticalAlign=middle;resizable=0;points=[];" parent="bMCT6bNHXgNXmFaWf76b-59" vertex="1" connectable="0">
          <mxGeometry x="0.5733" y="-1" relative="1" as="geometry">
            <mxPoint as="offset" />
          </mxGeometry>
        </mxCell>
        <mxCell id="bMCT6bNHXgNXmFaWf76b-74" style="edgeStyle=orthogonalEdgeStyle;rounded=0;orthogonalLoop=1;jettySize=auto;html=1;exitX=0.5;exitY=1;exitDx=0;exitDy=0;entryX=0.5;entryY=0;entryDx=0;entryDy=0;endArrow=none;endFill=0;" parent="1" source="bMCT6bNHXgNXmFaWf76b-14" target="bMCT6bNHXgNXmFaWf76b-73" edge="1">
          <mxGeometry relative="1" as="geometry" />
        </mxCell>
        <mxCell id="GkStRdjyFZFUsdvMpN6v-27" value="N" style="edgeLabel;html=1;align=center;verticalAlign=middle;resizable=0;points=[];" parent="bMCT6bNHXgNXmFaWf76b-74" vertex="1" connectable="0">
          <mxGeometry x="0.878" y="-2" relative="1" as="geometry">
            <mxPoint as="offset" />
          </mxGeometry>
        </mxCell>
        <mxCell id="hGGk3XV-ql3nhBnSGVCS-5" style="edgeStyle=orthogonalEdgeStyle;rounded=0;orthogonalLoop=1;jettySize=auto;html=1;exitX=0.5;exitY=1;exitDx=0;exitDy=0;entryX=0.5;entryY=0;entryDx=0;entryDy=0;endArrow=none;endFill=0;" parent="1" source="bMCT6bNHXgNXmFaWf76b-14" target="hGGk3XV-ql3nhBnSGVCS-1" edge="1">
          <mxGeometry relative="1" as="geometry" />
        </mxCell>
        <mxCell id="hGGk3XV-ql3nhBnSGVCS-12" value="1" style="edgeLabel;html=1;align=center;verticalAlign=middle;resizable=0;points=[];" parent="hGGk3XV-ql3nhBnSGVCS-5" vertex="1" connectable="0">
          <mxGeometry x="0.821" relative="1" as="geometry">
            <mxPoint as="offset" />
          </mxGeometry>
        </mxCell>
        <mxCell id="bMCT6bNHXgNXmFaWf76b-14" value="Пользователь" style="rounded=0;whiteSpace=wrap;html=1;" parent="1" vertex="1">
          <mxGeometry x="540" y="355" width="120" height="60" as="geometry" />
        </mxCell>
        <mxCell id="bMCT6bNHXgNXmFaWf76b-15" value="ФИО" style="ellipse;whiteSpace=wrap;html=1;" parent="1" vertex="1">
          <mxGeometry x="700" y="170" width="120" height="70" as="geometry" />
        </mxCell>
        <mxCell id="bMCT6bNHXgNXmFaWf76b-16" value="Почта" style="ellipse;whiteSpace=wrap;html=1;" parent="1" vertex="1">
          <mxGeometry x="700" y="260" width="120" height="70" as="geometry" />
        </mxCell>
        <mxCell id="bMCT6bNHXgNXmFaWf76b-17" value="Телефон" style="ellipse;whiteSpace=wrap;html=1;" parent="1" vertex="1">
          <mxGeometry x="700" y="350" width="120" height="70" as="geometry" />
        </mxCell>
        <mxCell id="bMCT6bNHXgNXmFaWf76b-18" value="Пароль" style="ellipse;whiteSpace=wrap;html=1;" parent="1" vertex="1">
          <mxGeometry x="700" y="440" width="120" height="70" as="geometry" />
        </mxCell>
        <mxCell id="bMCT6bNHXgNXmFaWf76b-44" style="edgeStyle=orthogonalEdgeStyle;rounded=0;orthogonalLoop=1;jettySize=auto;html=1;exitX=0.5;exitY=1;exitDx=0;exitDy=0;entryX=0.5;entryY=0;entryDx=0;entryDy=0;endArrow=none;endFill=0;" parent="1" source="bMCT6bNHXgNXmFaWf76b-19" target="bMCT6bNHXgNXmFaWf76b-20" edge="1">
          <mxGeometry relative="1" as="geometry" />
        </mxCell>
        <mxCell id="bMCT6bNHXgNXmFaWf76b-45" style="edgeStyle=orthogonalEdgeStyle;rounded=0;orthogonalLoop=1;jettySize=auto;html=1;exitX=0.5;exitY=1;exitDx=0;exitDy=0;entryX=0.5;entryY=0;entryDx=0;entryDy=0;endArrow=none;endFill=0;" parent="1" source="bMCT6bNHXgNXmFaWf76b-19" target="bMCT6bNHXgNXmFaWf76b-21" edge="1">
          <mxGeometry relative="1" as="geometry" />
        </mxCell>
        <mxCell id="bMCT6bNHXgNXmFaWf76b-46" style="edgeStyle=orthogonalEdgeStyle;rounded=0;orthogonalLoop=1;jettySize=auto;html=1;exitX=0.5;exitY=1;exitDx=0;exitDy=0;entryX=0.5;entryY=0;entryDx=0;entryDy=0;endArrow=none;endFill=0;" parent="1" source="bMCT6bNHXgNXmFaWf76b-19" target="bMCT6bNHXgNXmFaWf76b-22" edge="1">
          <mxGeometry relative="1" as="geometry" />
        </mxCell>
        <mxCell id="bMCT6bNHXgNXmFaWf76b-47" style="edgeStyle=orthogonalEdgeStyle;rounded=0;orthogonalLoop=1;jettySize=auto;html=1;exitX=0.5;exitY=1;exitDx=0;exitDy=0;entryX=0.5;entryY=0;entryDx=0;entryDy=0;endArrow=none;endFill=0;" parent="1" source="bMCT6bNHXgNXmFaWf76b-19" target="bMCT6bNHXgNXmFaWf76b-32" edge="1">
          <mxGeometry relative="1" as="geometry" />
        </mxCell>
        <mxCell id="hGGk3XV-ql3nhBnSGVCS-2" style="edgeStyle=orthogonalEdgeStyle;rounded=0;orthogonalLoop=1;jettySize=auto;html=1;exitX=1;exitY=0.5;exitDx=0;exitDy=0;entryX=0;entryY=0.5;entryDx=0;entryDy=0;endArrow=none;endFill=0;" parent="1" source="bMCT6bNHXgNXmFaWf76b-19" target="GkStRdjyFZFUsdvMpN6v-15" edge="1">
          <mxGeometry relative="1" as="geometry" />
        </mxCell>
        <mxCell id="hGGk3XV-ql3nhBnSGVCS-6" value="1" style="edgeLabel;html=1;align=center;verticalAlign=middle;resizable=0;points=[];" parent="hGGk3XV-ql3nhBnSGVCS-2" vertex="1" connectable="0">
          <mxGeometry x="0.4394" y="-1" relative="1" as="geometry">
            <mxPoint as="offset" />
          </mxGeometry>
        </mxCell>
        <mxCell id="bMCT6bNHXgNXmFaWf76b-19" value="Трек" style="rounded=0;whiteSpace=wrap;html=1;" parent="1" vertex="1">
          <mxGeometry x="200" y="800" width="120" height="60" as="geometry" />
        </mxCell>
        <mxCell id="bMCT6bNHXgNXmFaWf76b-20" value="Название" style="ellipse;whiteSpace=wrap;html=1;" parent="1" vertex="1">
          <mxGeometry y="900" width="120" height="70" as="geometry" />
        </mxCell>
        <mxCell id="bMCT6bNHXgNXmFaWf76b-21" value="Жанр" style="ellipse;whiteSpace=wrap;html=1;" parent="1" vertex="1">
          <mxGeometry x="130" y="900" width="120" height="70" as="geometry" />
        </mxCell>
        <mxCell id="bMCT6bNHXgNXmFaWf76b-22" value="Кол-во лайков" style="ellipse;whiteSpace=wrap;html=1;" parent="1" vertex="1">
          <mxGeometry x="260" y="900" width="120" height="70" as="geometry" />
        </mxCell>
        <mxCell id="bMCT6bNHXgNXmFaWf76b-33" style="edgeStyle=orthogonalEdgeStyle;rounded=0;orthogonalLoop=1;jettySize=auto;html=1;exitX=0;exitY=0.5;exitDx=0;exitDy=0;entryX=1;entryY=0.5;entryDx=0;entryDy=0;endArrow=none;endFill=0;" parent="1" source="bMCT6bNHXgNXmFaWf76b-23" target="bMCT6bNHXgNXmFaWf76b-24" edge="1">
          <mxGeometry relative="1" as="geometry" />
        </mxCell>
        <mxCell id="bMCT6bNHXgNXmFaWf76b-34" style="edgeStyle=orthogonalEdgeStyle;rounded=0;orthogonalLoop=1;jettySize=auto;html=1;exitX=0;exitY=0.5;exitDx=0;exitDy=0;entryX=1;entryY=0.5;entryDx=0;entryDy=0;endArrow=none;endFill=0;" parent="1" source="bMCT6bNHXgNXmFaWf76b-23" target="bMCT6bNHXgNXmFaWf76b-25" edge="1">
          <mxGeometry relative="1" as="geometry" />
        </mxCell>
        <mxCell id="bMCT6bNHXgNXmFaWf76b-35" style="edgeStyle=orthogonalEdgeStyle;rounded=0;orthogonalLoop=1;jettySize=auto;html=1;exitX=0;exitY=0.5;exitDx=0;exitDy=0;entryX=1;entryY=0.5;entryDx=0;entryDy=0;endArrow=none;endFill=0;" parent="1" source="bMCT6bNHXgNXmFaWf76b-23" target="bMCT6bNHXgNXmFaWf76b-29" edge="1">
          <mxGeometry relative="1" as="geometry" />
        </mxCell>
        <mxCell id="bMCT6bNHXgNXmFaWf76b-50" style="edgeStyle=orthogonalEdgeStyle;rounded=0;orthogonalLoop=1;jettySize=auto;html=1;exitX=0.5;exitY=1;exitDx=0;exitDy=0;entryX=0.5;entryY=0;entryDx=0;entryDy=0;endArrow=none;endFill=0;" parent="1" source="bMCT6bNHXgNXmFaWf76b-23" target="bMCT6bNHXgNXmFaWf76b-48" edge="1">
          <mxGeometry relative="1" as="geometry" />
        </mxCell>
        <mxCell id="GkStRdjyFZFUsdvMpN6v-35" value="M" style="edgeLabel;html=1;align=center;verticalAlign=middle;resizable=0;points=[];" parent="bMCT6bNHXgNXmFaWf76b-50" vertex="1" connectable="0">
          <mxGeometry x="0.3867" y="-2" relative="1" as="geometry">
            <mxPoint as="offset" />
          </mxGeometry>
        </mxCell>
        <mxCell id="bMCT6bNHXgNXmFaWf76b-23" value="Исполнитель" style="rounded=0;whiteSpace=wrap;html=1;" parent="1" vertex="1">
          <mxGeometry x="160" y="265" width="120" height="60" as="geometry" />
        </mxCell>
        <mxCell id="bMCT6bNHXgNXmFaWf76b-24" value="Псевдоним" style="ellipse;whiteSpace=wrap;html=1;" parent="1" vertex="1">
          <mxGeometry y="170" width="120" height="70" as="geometry" />
        </mxCell>
        <mxCell id="bMCT6bNHXgNXmFaWf76b-25" value="Описание" style="ellipse;whiteSpace=wrap;html=1;" parent="1" vertex="1">
          <mxGeometry y="260" width="120" height="70" as="geometry" />
        </mxCell>
        <mxCell id="bMCT6bNHXgNXmFaWf76b-36" style="edgeStyle=orthogonalEdgeStyle;rounded=0;orthogonalLoop=1;jettySize=auto;html=1;exitX=0;exitY=0.5;exitDx=0;exitDy=0;entryX=1;entryY=0.5;entryDx=0;entryDy=0;endArrow=none;endFill=0;" parent="1" source="bMCT6bNHXgNXmFaWf76b-26" target="bMCT6bNHXgNXmFaWf76b-27" edge="1">
          <mxGeometry relative="1" as="geometry" />
        </mxCell>
        <mxCell id="bMCT6bNHXgNXmFaWf76b-37" style="edgeStyle=orthogonalEdgeStyle;rounded=0;orthogonalLoop=1;jettySize=auto;html=1;exitX=0;exitY=0.5;exitDx=0;exitDy=0;entryX=1;entryY=0.5;entryDx=0;entryDy=0;endArrow=none;endFill=0;" parent="1" source="bMCT6bNHXgNXmFaWf76b-26" target="bMCT6bNHXgNXmFaWf76b-28" edge="1">
          <mxGeometry relative="1" as="geometry" />
        </mxCell>
        <mxCell id="bMCT6bNHXgNXmFaWf76b-38" style="edgeStyle=orthogonalEdgeStyle;rounded=0;orthogonalLoop=1;jettySize=auto;html=1;exitX=0;exitY=0.5;exitDx=0;exitDy=0;entryX=1;entryY=0.5;entryDx=0;entryDy=0;endArrow=none;endFill=0;" parent="1" source="bMCT6bNHXgNXmFaWf76b-26" target="bMCT6bNHXgNXmFaWf76b-30" edge="1">
          <mxGeometry relative="1" as="geometry" />
        </mxCell>
        <mxCell id="bMCT6bNHXgNXmFaWf76b-52" style="edgeStyle=orthogonalEdgeStyle;rounded=0;orthogonalLoop=1;jettySize=auto;html=1;exitX=0.5;exitY=1;exitDx=0;exitDy=0;entryX=0.5;entryY=0;entryDx=0;entryDy=0;endArrow=none;endFill=0;" parent="1" source="bMCT6bNHXgNXmFaWf76b-26" target="bMCT6bNHXgNXmFaWf76b-49" edge="1">
          <mxGeometry relative="1" as="geometry" />
        </mxCell>
        <mxCell id="GkStRdjyFZFUsdvMpN6v-33" value="1" style="edgeLabel;html=1;align=center;verticalAlign=middle;resizable=0;points=[];" parent="bMCT6bNHXgNXmFaWf76b-52" vertex="1" connectable="0">
          <mxGeometry x="0.5529" relative="1" as="geometry">
            <mxPoint as="offset" />
          </mxGeometry>
        </mxCell>
        <mxCell id="bMCT6bNHXgNXmFaWf76b-26" value="Альбом" style="rounded=0;whiteSpace=wrap;html=1;" parent="1" vertex="1">
          <mxGeometry x="160" y="535" width="120" height="60" as="geometry" />
        </mxCell>
        <mxCell id="bMCT6bNHXgNXmFaWf76b-27" value="Название" style="ellipse;whiteSpace=wrap;html=1;" parent="1" vertex="1">
          <mxGeometry y="440" width="120" height="70" as="geometry" />
        </mxCell>
        <mxCell id="bMCT6bNHXgNXmFaWf76b-28" value="Дата выпуска" style="ellipse;whiteSpace=wrap;html=1;" parent="1" vertex="1">
          <mxGeometry y="530" width="120" height="70" as="geometry" />
        </mxCell>
        <mxCell id="bMCT6bNHXgNXmFaWf76b-29" value="Идентификатор" style="ellipse;whiteSpace=wrap;html=1;" parent="1" vertex="1">
          <mxGeometry y="350" width="120" height="70" as="geometry" />
        </mxCell>
        <mxCell id="bMCT6bNHXgNXmFaWf76b-30" value="Идентификатор" style="ellipse;whiteSpace=wrap;html=1;" parent="1" vertex="1">
          <mxGeometry y="620" width="120" height="70" as="geometry" />
        </mxCell>
        <mxCell id="bMCT6bNHXgNXmFaWf76b-31" value="Идентификатор" style="ellipse;whiteSpace=wrap;html=1;" parent="1" vertex="1">
          <mxGeometry x="700" y="530" width="120" height="70" as="geometry" />
        </mxCell>
        <mxCell id="bMCT6bNHXgNXmFaWf76b-32" value="Идентификатор" style="ellipse;whiteSpace=wrap;html=1;" parent="1" vertex="1">
          <mxGeometry x="390" y="900" width="120" height="70" as="geometry" />
        </mxCell>
        <mxCell id="bMCT6bNHXgNXmFaWf76b-51" style="edgeStyle=orthogonalEdgeStyle;rounded=0;orthogonalLoop=1;jettySize=auto;html=1;exitX=0.5;exitY=1;exitDx=0;exitDy=0;entryX=0.5;entryY=0;entryDx=0;entryDy=0;endArrow=none;endFill=0;" parent="1" source="bMCT6bNHXgNXmFaWf76b-48" target="bMCT6bNHXgNXmFaWf76b-26" edge="1">
          <mxGeometry relative="1" as="geometry" />
        </mxCell>
        <mxCell id="GkStRdjyFZFUsdvMpN6v-36" value="N" style="edgeLabel;html=1;align=center;verticalAlign=middle;resizable=0;points=[];" parent="bMCT6bNHXgNXmFaWf76b-51" vertex="1" connectable="0">
          <mxGeometry x="-0.52" y="1" relative="1" as="geometry">
            <mxPoint as="offset" />
          </mxGeometry>
        </mxCell>
        <mxCell id="bMCT6bNHXgNXmFaWf76b-48" value="Владеет" style="rhombus;whiteSpace=wrap;html=1;" parent="1" vertex="1">
          <mxGeometry x="160" y="400" width="120" height="60" as="geometry" />
        </mxCell>
        <mxCell id="bMCT6bNHXgNXmFaWf76b-53" style="edgeStyle=orthogonalEdgeStyle;rounded=0;orthogonalLoop=1;jettySize=auto;html=1;exitX=0.5;exitY=1;exitDx=0;exitDy=0;entryX=0.5;entryY=0;entryDx=0;entryDy=0;endArrow=none;endFill=0;" parent="1" source="bMCT6bNHXgNXmFaWf76b-49" target="bMCT6bNHXgNXmFaWf76b-19" edge="1">
          <mxGeometry relative="1" as="geometry" />
        </mxCell>
        <mxCell id="GkStRdjyFZFUsdvMpN6v-34" value="N" style="edgeLabel;html=1;align=center;verticalAlign=middle;resizable=0;points=[];" parent="bMCT6bNHXgNXmFaWf76b-53" vertex="1" connectable="0">
          <mxGeometry x="-0.8247" relative="1" as="geometry">
            <mxPoint as="offset" />
          </mxGeometry>
        </mxCell>
        <mxCell id="bMCT6bNHXgNXmFaWf76b-49" value="Содержит" style="rhombus;whiteSpace=wrap;html=1;" parent="1" vertex="1">
          <mxGeometry x="160" y="680" width="120" height="60" as="geometry" />
        </mxCell>
        <mxCell id="bMCT6bNHXgNXmFaWf76b-62" style="edgeStyle=orthogonalEdgeStyle;rounded=0;orthogonalLoop=1;jettySize=auto;html=1;exitX=0.5;exitY=0;exitDx=0;exitDy=0;entryX=0.5;entryY=1;entryDx=0;entryDy=0;endArrow=none;endFill=0;" parent="1" source="bMCT6bNHXgNXmFaWf76b-54" target="bMCT6bNHXgNXmFaWf76b-56" edge="1">
          <mxGeometry relative="1" as="geometry" />
        </mxCell>
        <mxCell id="bMCT6bNHXgNXmFaWf76b-63" style="edgeStyle=orthogonalEdgeStyle;rounded=0;orthogonalLoop=1;jettySize=auto;html=1;exitX=0.5;exitY=0;exitDx=0;exitDy=0;entryX=0.5;entryY=1;entryDx=0;entryDy=0;endArrow=none;endFill=0;" parent="1" source="bMCT6bNHXgNXmFaWf76b-54" target="bMCT6bNHXgNXmFaWf76b-57" edge="1">
          <mxGeometry relative="1" as="geometry" />
        </mxCell>
        <mxCell id="XhRxboW9JvPbOk-oIq7s-3" style="edgeStyle=orthogonalEdgeStyle;rounded=0;orthogonalLoop=1;jettySize=auto;html=1;exitX=0.5;exitY=0;exitDx=0;exitDy=0;entryX=0.5;entryY=1;entryDx=0;entryDy=0;endArrow=none;endFill=0;" parent="1" source="bMCT6bNHXgNXmFaWf76b-54" target="bMCT6bNHXgNXmFaWf76b-55" edge="1">
          <mxGeometry relative="1" as="geometry" />
        </mxCell>
        <mxCell id="wK0DKr3NX2WY4MT_MML3-2" style="edgeStyle=orthogonalEdgeStyle;rounded=0;orthogonalLoop=1;jettySize=auto;html=1;exitX=0.5;exitY=0;exitDx=0;exitDy=0;endArrow=none;endFill=0;" parent="1" source="bMCT6bNHXgNXmFaWf76b-54" target="wK0DKr3NX2WY4MT_MML3-1" edge="1">
          <mxGeometry relative="1" as="geometry" />
        </mxCell>
        <mxCell id="bMCT6bNHXgNXmFaWf76b-54" value="Подписка" style="rounded=0;whiteSpace=wrap;html=1;" parent="1" vertex="1">
          <mxGeometry x="540" y="120" width="120" height="60" as="geometry" />
        </mxCell>
        <mxCell id="bMCT6bNHXgNXmFaWf76b-55" value="Дата начала" style="ellipse;whiteSpace=wrap;html=1;" parent="1" vertex="1">
          <mxGeometry x="400" y="10" width="120" height="70" as="geometry" />
        </mxCell>
        <mxCell id="bMCT6bNHXgNXmFaWf76b-56" value="Дата окончания" style="ellipse;whiteSpace=wrap;html=1;" parent="1" vertex="1">
          <mxGeometry x="540" y="10" width="120" height="70" as="geometry" />
        </mxCell>
        <mxCell id="bMCT6bNHXgNXmFaWf76b-57" value="Идентификатор" style="ellipse;whiteSpace=wrap;html=1;" parent="1" vertex="1">
          <mxGeometry x="680" y="10" width="120" height="70" as="geometry" />
        </mxCell>
        <mxCell id="bMCT6bNHXgNXmFaWf76b-60" style="edgeStyle=orthogonalEdgeStyle;rounded=0;orthogonalLoop=1;jettySize=auto;html=1;exitX=0.5;exitY=0;exitDx=0;exitDy=0;entryX=0.5;entryY=1;entryDx=0;entryDy=0;endArrow=none;endFill=0;" parent="1" source="bMCT6bNHXgNXmFaWf76b-58" target="bMCT6bNHXgNXmFaWf76b-54" edge="1">
          <mxGeometry relative="1" as="geometry" />
        </mxCell>
        <mxCell id="bMCT6bNHXgNXmFaWf76b-67" value="1" style="edgeLabel;html=1;align=center;verticalAlign=middle;resizable=0;points=[];" parent="bMCT6bNHXgNXmFaWf76b-60" vertex="1" connectable="0">
          <mxGeometry x="0.166" relative="1" as="geometry">
            <mxPoint as="offset" />
          </mxGeometry>
        </mxCell>
        <mxCell id="bMCT6bNHXgNXmFaWf76b-58" value="Имеет" style="rhombus;whiteSpace=wrap;html=1;" parent="1" vertex="1">
          <mxGeometry x="540" y="220" width="120" height="60" as="geometry" />
        </mxCell>
        <mxCell id="bMCT6bNHXgNXmFaWf76b-75" style="edgeStyle=orthogonalEdgeStyle;rounded=0;orthogonalLoop=1;jettySize=auto;html=1;exitX=0.5;exitY=1;exitDx=0;exitDy=0;entryX=0.5;entryY=0;entryDx=0;entryDy=0;endArrow=none;endFill=0;" parent="1" source="bMCT6bNHXgNXmFaWf76b-73" target="bMCT6bNHXgNXmFaWf76b-19" edge="1">
          <mxGeometry relative="1" as="geometry">
            <Array as="points">
              <mxPoint x="428" y="770" />
              <mxPoint x="260" y="770" />
            </Array>
          </mxGeometry>
        </mxCell>
        <mxCell id="GkStRdjyFZFUsdvMpN6v-28" value="M" style="edgeLabel;html=1;align=center;verticalAlign=middle;resizable=0;points=[];" parent="bMCT6bNHXgNXmFaWf76b-75" vertex="1" connectable="0">
          <mxGeometry x="-0.7938" y="2" relative="1" as="geometry">
            <mxPoint as="offset" />
          </mxGeometry>
        </mxCell>
        <mxCell id="bMCT6bNHXgNXmFaWf76b-73" value="Хранит" style="rhombus;whiteSpace=wrap;html=1;" parent="1" vertex="1">
          <mxGeometry x="368" y="620" width="120" height="60" as="geometry" />
        </mxCell>
        <mxCell id="wK0DKr3NX2WY4MT_MML3-1" value="Идентификатор" style="ellipse;whiteSpace=wrap;html=1;" parent="1" vertex="1">
          <mxGeometry x="260" y="10" width="120" height="70" as="geometry" />
        </mxCell>
        <mxCell id="hGGk3XV-ql3nhBnSGVCS-3" style="edgeStyle=orthogonalEdgeStyle;rounded=0;orthogonalLoop=1;jettySize=auto;html=1;exitX=1;exitY=0.5;exitDx=0;exitDy=0;entryX=0;entryY=0.5;entryDx=0;entryDy=0;endArrow=none;endFill=0;" parent="1" source="GkStRdjyFZFUsdvMpN6v-15" target="GkStRdjyFZFUsdvMpN6v-16" edge="1">
          <mxGeometry relative="1" as="geometry" />
        </mxCell>
        <mxCell id="hGGk3XV-ql3nhBnSGVCS-7" value="N" style="edgeLabel;html=1;align=center;verticalAlign=middle;resizable=0;points=[];" parent="hGGk3XV-ql3nhBnSGVCS-3" vertex="1" connectable="0">
          <mxGeometry x="-0.5385" y="-1" relative="1" as="geometry">
            <mxPoint as="offset" />
          </mxGeometry>
        </mxCell>
        <mxCell id="GkStRdjyFZFUsdvMpN6v-15" value="Имеет" style="rhombus;whiteSpace=wrap;html=1;" parent="1" vertex="1">
          <mxGeometry x="368" y="800" width="120" height="60" as="geometry" />
        </mxCell>
        <mxCell id="hGGk3XV-ql3nhBnSGVCS-8" style="edgeStyle=orthogonalEdgeStyle;rounded=0;orthogonalLoop=1;jettySize=auto;html=1;exitX=1;exitY=0.5;exitDx=0;exitDy=0;entryX=0;entryY=0.5;entryDx=0;entryDy=0;endArrow=none;endFill=0;" parent="1" source="GkStRdjyFZFUsdvMpN6v-16" target="GkStRdjyFZFUsdvMpN6v-39" edge="1">
          <mxGeometry relative="1" as="geometry" />
        </mxCell>
        <mxCell id="hGGk3XV-ql3nhBnSGVCS-9" style="edgeStyle=orthogonalEdgeStyle;rounded=0;orthogonalLoop=1;jettySize=auto;html=1;exitX=1;exitY=0.5;exitDx=0;exitDy=0;endArrow=none;endFill=0;" parent="1" source="GkStRdjyFZFUsdvMpN6v-16" target="GkStRdjyFZFUsdvMpN6v-40" edge="1">
          <mxGeometry relative="1" as="geometry" />
        </mxCell>
        <mxCell id="hGGk3XV-ql3nhBnSGVCS-10" style="edgeStyle=orthogonalEdgeStyle;rounded=0;orthogonalLoop=1;jettySize=auto;html=1;exitX=1;exitY=0.5;exitDx=0;exitDy=0;entryX=0;entryY=0.5;entryDx=0;entryDy=0;endArrow=none;endFill=0;" parent="1" source="GkStRdjyFZFUsdvMpN6v-16" target="GkStRdjyFZFUsdvMpN6v-41" edge="1">
          <mxGeometry relative="1" as="geometry" />
        </mxCell>
        <mxCell id="GkStRdjyFZFUsdvMpN6v-16" value="Комментарий" style="rounded=0;whiteSpace=wrap;html=1;" parent="1" vertex="1">
          <mxGeometry x="540" y="800" width="120" height="60" as="geometry" />
        </mxCell>
        <mxCell id="GkStRdjyFZFUsdvMpN6v-39" value="Идендификатор" style="ellipse;whiteSpace=wrap;html=1;" parent="1" vertex="1">
          <mxGeometry x="700" y="710" width="120" height="70" as="geometry" />
        </mxCell>
        <mxCell id="GkStRdjyFZFUsdvMpN6v-40" value="Оценка" style="ellipse;whiteSpace=wrap;html=1;" parent="1" vertex="1">
          <mxGeometry x="700" y="795" width="120" height="70" as="geometry" />
        </mxCell>
        <mxCell id="GkStRdjyFZFUsdvMpN6v-41" value="Текст" style="ellipse;whiteSpace=wrap;html=1;" parent="1" vertex="1">
          <mxGeometry x="700" y="880" width="120" height="70" as="geometry" />
        </mxCell>
        <mxCell id="hGGk3XV-ql3nhBnSGVCS-4" style="edgeStyle=orthogonalEdgeStyle;rounded=0;orthogonalLoop=1;jettySize=auto;html=1;exitX=0.5;exitY=1;exitDx=0;exitDy=0;entryX=0.5;entryY=0;entryDx=0;entryDy=0;endArrow=none;endFill=0;" parent="1" source="hGGk3XV-ql3nhBnSGVCS-1" target="GkStRdjyFZFUsdvMpN6v-16" edge="1">
          <mxGeometry relative="1" as="geometry" />
        </mxCell>
        <mxCell id="hGGk3XV-ql3nhBnSGVCS-13" value="N" style="edgeLabel;html=1;align=center;verticalAlign=middle;resizable=0;points=[];" parent="hGGk3XV-ql3nhBnSGVCS-4" vertex="1" connectable="0">
          <mxGeometry x="-0.6971" relative="1" as="geometry">
            <mxPoint as="offset" />
          </mxGeometry>
        </mxCell>
        <mxCell id="hGGk3XV-ql3nhBnSGVCS-1" value="Публикует" style="rhombus;whiteSpace=wrap;html=1;" parent="1" vertex="1">
          <mxGeometry x="540" y="620" width="120" height="60" as="geometry" />
        </mxCell>
      </root>
    </mxGraphModel>
  </diagram>
</mxfile>
